<svg width="48" height="48" viewBox="0 0 48 48" fill="none" xmlns="http://www.w3.org/2000/svg">
<path d="M36.0032 11.3992C35.1206 11.3992 34.3826 11.1039 33.7892 10.5132C33.1959 9.92255 32.8992 9.18589 32.8992 8.30322C32.8992 7.42055 33.1946 6.68255 33.7852 6.08922C34.3759 5.49588 35.1126 5.19922 35.9952 5.19922C36.8779 5.19922 37.6159 5.49455 38.2092 6.08522C38.8026 6.67588 39.0992 7.41255 39.0992 8.29522C39.0992 9.17788 38.8039 9.91589 38.2132 10.5092C37.6226 11.1026 36.8859 11.3992 36.0032 11.3992ZM32.9992 42.6992V27.0492C32.9992 26.0366 32.7826 25.1251 32.3492 24.3147C31.9159 23.5044 31.1992 22.8659 30.1992 22.3992L32.4992 16.5492C32.7659 15.8492 33.2242 15.2826 33.8742 14.8492C34.5242 14.4159 35.2326 14.1992 35.9992 14.1992C36.7659 14.1992 37.4742 14.4076 38.1242 14.8242C38.7742 15.2409 39.2326 15.8159 39.4992 16.5492L44.9992 30.2492H39.4492V42.6992H32.9992ZM24.9432 22.7992C24.2139 22.7992 23.6159 22.5556 23.1492 22.0682C22.6826 21.5809 22.4492 20.9892 22.4492 20.2932C22.4492 19.5972 22.6846 19.0076 23.1552 18.5242C23.6259 18.0409 24.2259 17.7992 24.9552 17.7992C25.6512 17.7992 26.2409 18.0429 26.7242 18.5302C27.2076 19.0176 27.4492 19.6092 27.4492 20.3052C27.4492 21.0012 27.2056 21.5909 26.7182 22.0742C26.2309 22.5576 25.6392 22.7992 24.9432 22.7992ZM11.0032 11.3992C10.1206 11.3992 9.38255 11.1039 8.78922 10.5132C8.19589 9.92255 7.89922 9.18589 7.89922 8.30322C7.89922 7.42055 8.19455 6.68255 8.78522 6.08922C9.37589 5.49588 10.1126 5.19922 10.9952 5.19922C11.8779 5.19922 12.6159 5.49455 13.2092 6.08522C13.8026 6.67588 14.0992 7.41255 14.0992 8.29522C14.0992 9.17788 13.8039 9.91589 13.2132 10.5092C12.6226 11.1026 11.8859 11.3992 11.0032 11.3992ZM7.74922 42.6992V29.6492H4.19922V17.7992C4.19922 17.0826 4.47005 16.4534 5.01172 15.9117C5.55339 15.3701 6.18255 15.0992 6.89922 15.0992H15.0992C15.8159 15.0992 16.4451 15.3701 16.9867 15.9117C17.5284 16.4534 17.7992 17.0826 17.7992 17.7992V29.6492H14.2492V42.6992H7.74922ZM22.6992 42.6992V35.8492H20.5492V27.0492C20.5492 26.4799 20.7486 25.9959 21.1472 25.5972C21.5459 25.1986 22.0299 24.9992 22.5992 24.9992H27.2492C27.8186 24.9992 28.3026 25.1986 28.7012 25.5972C29.0999 25.9959 29.2992 26.4799 29.2992 27.0492V35.8492H27.1492V42.6992H22.6992Z" fill="white"/>
</svg>
