<svg width="43" height="39" viewBox="0 0 43 39" fill="none" xmlns="http://www.w3.org/2000/svg">
<path d="M7.8125 9.13484C7.8125 8.65953 7.97328 8.25781 8.29484 7.92969C8.61641 7.60156 9.01484 7.4375 9.49016 7.4375C9.96547 7.4375 10.3672 7.59828 10.6953 7.91984C11.0234 8.24141 11.1875 8.63984 11.1875 9.11516C11.1875 9.59047 11.0267 9.99219 10.7052 10.3203C10.3836 10.6484 9.98515 10.8125 9.50984 10.8125C9.03453 10.8125 8.63281 10.6517 8.30469 10.3302C7.97656 10.0086 7.8125 9.61016 7.8125 9.13484ZM0.687498 9.125C0.687498 6.6875 1.54687 4.60938 3.26562 2.89062C4.98437 1.17187 7.0625 0.3125 9.5 0.3125C11.9375 0.3125 14.0156 1.17187 15.7344 2.89062C17.4531 4.60938 18.3125 6.6875 18.3125 9.125C18.3125 11.0313 17.7812 12.7422 16.7187 14.2578C15.6562 15.7734 14.2344 16.8242 12.4531 17.4102L12.4531 34.9531L9.35937 38.0469L4.57812 32.9844L6.92187 29.8438L4.48437 26.4219L6.54687 23.4219V17.4219C4.85937 16.8594 3.46094 15.8281 2.35156 14.3281C1.24218 12.8281 0.687498 11.0938 0.687498 9.125ZM1.71875 9.125C1.71875 11 2.30468 12.6172 3.47656 13.9766C4.64844 15.3359 6.01562 16.2002 7.57812 16.5692V23.7969L5.75 26.4219L8.1875 29.8906L5.84375 32.9844L9.40625 36.5938L11.4219 34.5781L11.4219 16.5781C12.9531 16.2344 14.3125 15.3859 15.5 14.0328C16.6875 12.6794 17.2812 11.0475 17.2812 9.13719C17.2812 6.97281 16.5259 5.13281 15.0153 3.61719C13.5047 2.10156 11.6687 1.34375 9.5075 1.34375C7.34625 1.34375 5.50781 2.09984 3.99219 3.61203C2.47656 5.12391 1.71875 6.96156 1.71875 9.125Z" fill="white"/>
<path d="M15.248 35.0145V18.7145L24.648 9.31445L34.048 18.7145V35.0145H15.248ZM16.348 33.9145H23.398V29.7145H25.898V33.9145H32.948V19.1645L24.648 10.8645L16.348 19.1645V33.9145ZM23.398 22.8645V20.3645H25.898V22.8645H23.398ZM37.348 35.0645V17.4645L29.198 9.31445H30.898L38.448 16.8645V35.0645H37.348ZM41.748 35.0645V15.6145L35.448 9.31445H37.198L42.848 15.0145V35.0645H41.748Z" fill="white"/>
</svg>
