<svg width="48" height="48" viewBox="0 0 48 48" fill="none" xmlns="http://www.w3.org/2000/svg">
<path d="M20.2996 39.3992V30.3067C18.2903 30.1621 16.3241 29.9562 14.4011 29.6892C12.4781 29.4222 10.5443 29.0756 8.59961 28.6492L8.84961 27.5492C11.3179 28.1326 13.8143 28.5534 16.3386 28.8117C18.8626 29.0701 21.4161 29.1992 23.9991 29.1992C26.5524 29.1992 29.0898 29.0701 31.6111 28.8117C34.1324 28.5534 36.6619 28.1326 39.1996 27.5492L39.3996 28.6492C37.4579 29.0716 35.5149 29.4199 33.5706 29.6942C31.6263 29.9682 29.6693 30.1814 27.6996 30.3337V39.3992H20.2996ZM24.0116 25.2992C23.1369 25.2992 22.3996 25.0032 21.7996 24.4112C21.1996 23.8189 20.8996 23.0791 20.8996 22.1917C20.8996 21.3301 21.1956 20.5992 21.7876 19.9992C22.3799 19.3992 23.1198 19.0992 24.0071 19.0992C24.8688 19.0992 25.5996 19.3932 26.1996 19.9812C26.7996 20.5696 27.0996 21.3049 27.0996 22.1872C27.0996 23.0619 26.8056 23.7992 26.2176 24.3992C25.6293 24.9992 24.8939 25.2992 24.0116 25.2992ZM10.1696 19.8492C9.70628 19.8492 9.32878 19.7034 9.03711 19.4117C8.74544 19.1201 8.59961 18.7452 8.59961 18.2872C8.59961 17.8952 8.74544 17.5409 9.03711 17.2242C9.32878 16.9076 9.70361 16.7492 10.1616 16.7492C10.5536 16.7492 10.9079 16.9079 11.2246 17.2252C11.5413 17.5426 11.6996 17.8939 11.6996 18.2792C11.6996 18.7426 11.5409 19.1201 11.2236 19.4117C10.9063 19.7034 10.5549 19.8492 10.1696 19.8492ZM37.8696 19.8492C37.4063 19.8492 37.0288 19.7034 36.7371 19.4117C36.4454 19.1201 36.2996 18.7452 36.2996 18.2872C36.2996 17.8952 36.4454 17.5409 36.7371 17.2242C37.0288 16.9076 37.4036 16.7492 37.8616 16.7492C38.2536 16.7492 38.6079 16.9079 38.9246 17.2252C39.2413 17.5426 39.3996 17.8939 39.3996 18.2792C39.3996 18.7426 39.2409 19.1201 38.9236 19.4117C38.6063 19.7034 38.2549 19.8492 37.8696 19.8492ZM14.9826 12.5992C14.5439 12.5992 14.1829 12.4517 13.8996 12.1567C13.6163 11.8614 13.4746 11.4886 13.4746 11.0382C13.4746 10.6532 13.6163 10.3004 13.8996 9.97972C14.1829 9.65938 14.5453 9.49922 14.9866 9.49922C15.3786 9.49922 15.7413 9.65789 16.0746 9.97522C16.4079 10.2926 16.5746 10.6439 16.5746 11.0292C16.5746 11.4926 16.4081 11.8701 16.0751 12.1617C15.7421 12.4534 15.3779 12.5992 14.9826 12.5992ZM32.9826 12.5992C32.5439 12.5992 32.1829 12.4517 31.8996 12.1567C31.6163 11.8614 31.4746 11.4886 31.4746 11.0382C31.4746 10.6532 31.6163 10.3004 31.8996 9.97972C32.1829 9.65938 32.5453 9.49922 32.9866 9.49922C33.3786 9.49922 33.7413 9.65789 34.0746 9.97522C34.4079 10.2926 34.5746 10.6439 34.5746 11.0292C34.5746 11.4926 34.4081 11.8701 34.0751 12.1617C33.7421 12.4534 33.3779 12.5992 32.9826 12.5992ZM23.9826 9.67422C23.5439 9.67422 23.1829 9.53255 22.8996 9.24922C22.6163 8.96589 22.4746 8.60372 22.4746 8.16272C22.4746 7.77105 22.6163 7.40839 22.8996 7.07472C23.1829 6.74105 23.5451 6.57422 23.9861 6.57422C24.3778 6.57422 24.7404 6.74072 25.0741 7.07372C25.4078 7.40672 25.5746 7.77089 25.5746 8.16622C25.5746 8.60489 25.4081 8.96589 25.0751 9.24922C24.7421 9.53255 24.3779 9.67422 23.9826 9.67422Z" fill="white"/>
</svg>
