<svg width="48" height="48" viewBox="0 0 48 48" fill="none" xmlns="http://www.w3.org/2000/svg">
<path d="M9.28861 37.3996C8.55461 37.3996 7.92294 37.1349 7.39361 36.6056C6.86428 36.0763 6.59961 35.4443 6.59961 34.7096V13.2896C6.59961 12.5549 6.86428 11.9229 7.39361 11.3936C7.92294 10.8643 8.55461 10.5996 9.28861 10.5996H38.7106C39.4446 10.5996 40.0763 10.8643 40.6056 11.3936C41.1349 11.9229 41.3996 12.5549 41.3996 13.2896V34.7096C41.3996 35.4443 41.1349 36.0763 40.6056 36.6056C40.0763 37.1349 39.4446 37.3996 38.7106 37.3996H9.28861ZM23.9996 23.2996L7.69961 12.3996V34.6996C7.69961 35.1663 7.84961 35.5496 8.14961 35.8496C8.44961 36.1496 8.83294 36.2996 9.29961 36.2996H38.6996C39.1663 36.2996 39.5496 36.1496 39.8496 35.8496C40.1496 35.5496 40.2996 35.1663 40.2996 34.6996V12.3996L23.9996 23.2996ZM23.9996 21.9496L39.4496 11.6996H8.59961L23.9996 21.9496ZM7.69961 12.3996V11.6996V34.6996C7.69961 35.1663 7.84961 35.5496 8.14961 35.8496C8.44961 36.1496 8.83294 36.2996 9.29961 36.2996H7.69961V12.3996Z" fill="white"/>
</svg>
