<svg width="48" height="48" viewBox="0 0 48 48" fill="none" xmlns="http://www.w3.org/2000/svg">
<path d="M5.22461 27.2746C4.31594 25.9413 3.65128 24.5996 3.23061 23.2496C2.80994 21.8996 2.59961 20.5494 2.59961 19.1991C2.59961 16.2661 3.63294 13.7663 5.69961 11.6996C7.76628 9.63294 10.2626 8.59961 13.1886 8.59961C15.1853 8.59961 17.0988 9.14961 18.9291 10.2496C20.7594 11.3496 22.4496 12.9329 23.9996 14.9996C25.5496 12.9329 27.2398 11.3496 29.0701 10.2496C30.9004 9.14961 32.8139 8.59961 34.8106 8.59961C37.7366 8.59961 40.2329 9.63294 42.2996 11.6996C44.3663 13.7663 45.3996 16.2663 45.3996 19.1996C45.3996 20.4496 45.1913 21.7496 44.7746 23.0996C44.3579 24.4496 43.6996 25.8329 42.7996 27.2496C42.6296 27.1373 42.4579 27.0468 42.2846 26.9781C42.1113 26.9091 41.9496 26.8496 41.7996 26.7996C42.6329 25.4443 43.2579 24.1471 43.6746 22.9081C44.0913 21.6691 44.2996 20.4348 44.2996 19.2051C44.2996 16.5514 43.3788 14.3038 41.5371 12.4621C39.6954 10.6204 37.4496 9.69961 34.7996 9.69961C33.1996 9.69961 31.4788 10.2246 29.6371 11.2746C27.7954 12.3246 25.9163 14.1329 23.9996 16.6996C22.0829 14.1329 20.2038 12.3246 18.3621 11.2746C16.5204 10.2246 14.7996 9.69961 13.1996 9.69961C10.5496 9.69961 8.30378 10.6204 6.46211 12.4621C4.62044 14.3038 3.69961 16.5458 3.69961 19.1881C3.69961 20.4458 3.90794 21.7163 4.32461 22.9996C4.74128 24.2829 5.35794 25.5579 6.17461 26.8246C6.03128 26.9399 5.87461 27.0313 5.70461 27.0986C5.53461 27.1659 5.37461 27.2246 5.22461 27.2746ZM2.62461 41.4996V40.3246C2.62461 39.2473 3.23161 38.3238 4.44561 37.5541C5.65928 36.7844 7.24444 36.3996 9.20111 36.3996C9.57078 36.3996 9.92411 36.4191 10.2611 36.4581C10.5981 36.4968 10.9026 36.5356 11.1746 36.5746C10.9913 36.9746 10.8504 37.4141 10.7521 37.8931C10.6541 38.3718 10.6051 38.8564 10.6051 39.3471V41.4996H2.62461ZM14.6246 41.4996V39.5246C14.6246 38.0619 15.4923 36.8921 17.2276 36.0151C18.9633 35.1381 21.2273 34.6996 24.0196 34.6996C26.8229 34.6996 29.0913 35.1381 30.8246 36.0151C32.5579 36.8921 33.4246 38.0619 33.4246 39.5246V41.4996H14.6246ZM37.3996 41.4996V39.3471C37.3996 38.8564 37.3538 38.3718 37.2621 37.8931C37.1704 37.4141 37.0329 36.9746 36.8496 36.5746C37.1503 36.5356 37.4703 36.4968 37.8096 36.4581C38.1489 36.4191 38.4956 36.3996 38.8496 36.3996C40.8429 36.3996 42.4371 36.7844 43.6321 37.5541C44.8271 38.3238 45.4246 39.2473 45.4246 40.3246V41.4996H37.3996ZM24.0061 35.7996C21.4018 35.7996 19.3371 36.1579 17.8121 36.8746C16.2871 37.5913 15.5746 38.5496 15.6746 39.7496V40.3996H32.3746V39.7496C32.4746 38.5496 31.7663 37.5913 30.2496 36.8746C28.7329 36.1579 26.6518 35.7996 24.0061 35.7996ZM9.20711 34.6996C8.54811 34.6996 7.99461 34.4698 7.54661 34.0101C7.09861 33.5504 6.87461 32.9911 6.87461 32.3321C6.87461 31.6938 7.10094 31.1538 7.55361 30.7121C8.00661 30.2704 8.55778 30.0496 9.20711 30.0496C9.83544 30.0496 10.3871 30.2729 10.8621 30.7196C11.3371 31.1663 11.5746 31.7038 11.5746 32.3321C11.5746 32.9811 11.3396 33.5379 10.8696 34.0026C10.3996 34.4673 9.84544 34.6996 9.20711 34.6996ZM38.8571 34.6996C38.2188 34.6996 37.6704 34.4698 37.2121 34.0101C36.7538 33.5504 36.5246 32.9911 36.5246 32.3321C36.5246 31.6938 36.7563 31.1538 37.2196 30.7121C37.6826 30.2704 38.2316 30.0496 38.8666 30.0496C39.5219 30.0496 40.0788 30.2729 40.5371 30.7196C40.9954 31.1663 41.2246 31.7038 41.2246 32.3321C41.2246 32.9811 40.9999 33.5379 40.5506 34.0026C40.1016 34.4673 39.5371 34.6996 38.8571 34.6996ZM24.0221 33.1996C22.9404 33.1996 22.0204 32.8216 21.2621 32.0656C20.5038 31.3096 20.1246 30.3811 20.1246 29.2801C20.1246 28.1714 20.5028 27.2474 21.2591 26.5081C22.0154 25.7691 22.9339 25.3996 24.0146 25.3996C25.1023 25.3996 26.0259 25.7684 26.7856 26.5061C27.5449 27.2438 27.9246 28.1658 27.9246 29.2721C27.9246 30.3571 27.5499 31.2829 26.8006 32.0496C26.0513 32.8163 25.1251 33.1996 24.0221 33.1996ZM23.9996 26.4996C23.2163 26.4996 22.5579 26.7678 22.0246 27.3041C21.4913 27.8408 21.2246 28.4976 21.2246 29.2746C21.2246 30.0746 21.4913 30.7454 22.0246 31.2871C22.5579 31.8288 23.2246 32.0996 24.0246 32.0996C24.7913 32.0996 25.4496 31.8288 25.9996 31.2871C26.5496 30.7454 26.8246 30.0621 26.8246 29.2371C26.8246 28.4954 26.5528 27.8538 26.0091 27.3121C25.4658 26.7704 24.7959 26.4996 23.9996 26.4996Z" fill="white"/>
</svg>
