<svg width="48" height="48" viewBox="0 0 48 48" fill="none" xmlns="http://www.w3.org/2000/svg">
<path d="M12.4236 35.4746C14.2409 34.2579 16.0663 33.2913 17.8996 32.5746C19.7329 31.8579 21.7663 31.4996 23.9996 31.4996C26.2329 31.4996 28.2621 31.8579 30.0871 32.5746C31.9121 33.2913 33.7579 34.2579 35.6246 35.4746C37.0413 33.9913 38.1746 32.2829 39.0246 30.3496C39.8746 28.4163 40.2996 26.3043 40.2996 24.0136C40.2996 19.4876 38.7121 15.6371 35.5371 12.4621C32.3621 9.28711 28.5163 7.69961 23.9996 7.69961C19.4829 7.69961 15.6371 9.28711 12.4621 12.4621C9.28711 15.6371 7.69961 19.4876 7.69961 24.0136C7.69961 26.3043 8.12461 28.4163 8.97461 30.3496C9.82461 32.2829 10.9743 33.9913 12.4236 35.4746ZM23.9891 24.5496C22.3794 24.5496 21.0371 24.0086 19.9621 22.9266C18.8871 21.8446 18.3496 20.4988 18.3496 18.8891C18.3496 17.2794 18.8906 15.9371 19.9726 14.8621C21.0546 13.7871 22.4004 13.2496 24.0101 13.2496C25.6198 13.2496 26.9621 13.7906 28.0371 14.8726C29.1121 15.9546 29.6496 17.3004 29.6496 18.9101C29.6496 20.5198 29.1086 21.8621 28.0266 22.9371C26.9446 24.0121 25.5988 24.5496 23.9891 24.5496ZM24.0106 41.3996C21.5896 41.3996 19.3188 40.9453 17.1981 40.0366C15.0774 39.1276 13.2351 37.8859 11.6711 36.3116C10.1068 34.7369 8.87044 32.8986 7.96211 30.7966C7.05378 28.6946 6.59961 26.4286 6.59961 23.9986C6.59961 21.5856 7.05394 19.3223 7.96261 17.2086C8.87161 15.0953 10.1133 13.2529 11.6876 11.6816C13.2623 10.1103 15.1006 8.87044 17.2026 7.96211C19.3046 7.05378 21.5706 6.59961 24.0006 6.59961C26.4136 6.59961 28.6769 7.05394 30.7906 7.96261C32.9039 8.87161 34.7463 10.1133 36.3176 11.6876C37.8889 13.2623 39.1288 15.1051 40.0371 17.2161C40.9454 19.3268 41.3996 21.5843 41.3996 23.9886C41.3996 26.4096 40.9453 28.6804 40.0366 30.8011C39.1276 32.9218 37.8859 34.7641 36.3116 36.3281C34.7369 37.8924 32.8941 39.1288 30.7831 40.0371C28.6724 40.9454 26.4149 41.3996 24.0106 41.3996ZM23.9966 40.2996C25.8986 40.2996 27.7954 39.9579 29.6871 39.2746C31.5788 38.5913 33.2496 37.5996 34.6996 36.2996C33.2496 35.1663 31.6213 34.2663 29.8146 33.5996C28.0079 32.9329 26.0711 32.5996 24.0041 32.5996C21.9371 32.5996 19.9821 32.9163 18.1391 33.5496C16.2961 34.1829 14.6996 35.0996 13.3496 36.2996C14.7663 37.5996 16.4194 38.5913 18.3091 39.2746C20.1988 39.9579 22.0946 40.2996 23.9966 40.2996ZM24.0066 23.4496C25.3186 23.4496 26.4038 23.0181 27.2621 22.1551C28.1204 21.2921 28.5496 20.2046 28.5496 18.8926C28.5496 17.5806 28.1181 16.4954 27.2551 15.6371C26.3921 14.7788 25.3046 14.3496 23.9926 14.3496C22.6806 14.3496 21.5954 14.7811 20.7371 15.6441C19.8788 16.5071 19.4496 17.5946 19.4496 18.9066C19.4496 20.2186 19.8811 21.3038 20.7441 22.1621C21.6071 23.0204 22.6946 23.4496 24.0066 23.4496Z" fill="white"/>
</svg>
