<svg width="48" height="48" viewBox="0 0 48 48" fill="none" xmlns="http://www.w3.org/2000/svg">
<path d="M13.4492 38.2008C12.8286 38.2008 12.3151 38.0309 11.9087 37.6913C11.5024 37.3516 11.2992 36.8881 11.2992 36.3008C11.2992 35.8841 11.4159 35.5133 11.6492 35.1883C11.8826 34.8633 12.1992 34.6341 12.5992 34.5008L21.3992 31.0008V21.9008C18.7326 25.0841 16.4826 27.3049 14.6492 28.5633C12.8159 29.8216 10.4992 30.6341 7.69922 31.0008V29.8508C9.64522 29.6841 11.5067 29.1008 13.2837 28.1008C15.0607 27.1008 16.6992 25.7008 18.1992 23.9008L20.9992 20.8008C21.1826 20.4841 21.4576 20.2383 21.8242 20.0633C22.1909 19.8883 22.5659 19.8008 22.9492 19.8008H25.0492C25.4326 19.8008 25.8076 19.8883 26.1742 20.0633C26.5409 20.2383 26.8326 20.4841 27.0492 20.8008L29.7992 23.9008C31.3326 25.6841 32.9794 27.0799 34.7397 28.0883C36.5001 29.0966 38.3532 29.6841 40.2992 29.8508V31.0008C37.4992 30.6341 35.1826 29.8216 33.3492 28.5633C31.5159 27.3049 29.2659 25.0841 26.5992 21.9008V31.0008L35.3992 34.5008C35.7992 34.6341 36.1159 34.8633 36.3492 35.1883C36.5826 35.5133 36.6992 35.8876 36.6992 36.3113C36.6992 36.8876 36.4961 37.3466 36.0897 37.6883C35.6837 38.0299 35.1702 38.2008 34.5492 38.2008H19.9492V38.2543C19.9492 37.4686 20.1466 36.8716 20.5412 36.4633C20.9359 36.0549 21.5189 35.8508 22.2902 35.8508H29.0967C29.3984 35.8508 29.6409 35.7609 29.8242 35.5813C30.0076 35.4019 30.0992 35.1584 30.0992 34.8508C30.0992 34.5431 30.0094 34.2996 29.8297 34.1203C29.6501 33.9406 29.4066 33.8508 29.0992 33.8508H22.3057C21.0181 33.8508 19.9701 34.2549 19.1617 35.0633C18.3534 35.8716 17.9492 36.9341 17.9492 38.2508V38.2008H13.4492ZM23.9992 16.5008C23.1492 16.5008 22.4201 16.1966 21.8117 15.5883C21.2034 14.9799 20.8992 14.2508 20.8992 13.4008C20.8992 12.5508 21.2034 11.8216 21.8117 11.2133C22.4201 10.6049 23.1492 10.3008 23.9992 10.3008C24.8492 10.3008 25.5784 10.6049 26.1867 11.2133C26.7951 11.8216 27.0992 12.5508 27.0992 13.4008C27.0992 14.2508 26.7951 14.9799 26.1867 15.5883C25.5784 16.1966 24.8492 16.5008 23.9992 16.5008Z" fill="white"/>
</svg>
