<svg width="48" height="48" viewBox="0 0 48 48" fill="none" xmlns="http://www.w3.org/2000/svg">
<path d="M31.7496 32.5496L32.5496 31.7496L24.5996 23.7486V13.7996H23.4996V24.2496L31.7496 32.5496ZM24.0146 41.3996C21.6076 41.3996 19.3504 40.9409 17.2431 40.0236C15.1358 39.1059 13.2921 37.8584 11.7121 36.2811C10.1321 34.7034 8.88511 32.8658 7.97111 30.7681C7.05678 28.6701 6.59961 26.4189 6.59961 24.0146C6.59961 21.6076 7.05828 19.3504 7.97561 17.2431C8.89328 15.1358 10.1408 13.2921 11.7181 11.7121C13.2958 10.1321 15.1334 8.88511 17.2311 7.97111C19.3291 7.05678 21.5803 6.59961 23.9846 6.59961C26.3916 6.59961 28.6488 7.05828 30.7561 7.97561C32.8634 8.89328 34.7071 10.1408 36.2871 11.7181C37.8671 13.2958 39.1141 15.1334 40.0281 17.2311C40.9424 19.3291 41.3996 21.5803 41.3996 23.9846C41.3996 26.3916 40.9409 28.6488 40.0236 30.7561C39.1059 32.8634 37.8584 34.7071 36.2811 36.2871C34.7034 37.8671 32.8658 39.1141 30.7681 40.0281C28.6701 40.9424 26.4189 41.3996 24.0146 41.3996ZM23.9871 40.2996C28.4954 40.2996 32.3413 38.7121 35.5246 35.5371C38.7079 32.3621 40.2996 28.5204 40.2996 24.0121C40.2996 19.5038 38.7083 15.6579 35.5256 12.4746C32.3429 9.29128 28.5009 7.69961 23.9996 7.69961C19.4829 7.69961 15.6371 9.29094 12.4621 12.4736C9.28711 15.6563 7.69961 19.4983 7.69961 23.9996C7.69961 28.5163 9.28711 32.3621 12.4621 35.5371C15.6371 38.7121 19.4788 40.2996 23.9871 40.2996Z" fill="white"/>
</svg>
