<svg width="48" height="48" viewBox="0 0 48 48" fill="none" xmlns="http://www.w3.org/2000/svg">
<path d="M4.67578 38.3742V31.6757C4.67578 31.0267 4.89345 30.4601 5.32878 29.9757C5.76411 29.4914 6.27145 29.2076 6.85078 29.1242H12.5508C13.0054 29.1242 13.4524 29.2492 13.8918 29.4992C14.3311 29.7492 14.6998 30.0631 14.9978 30.4407C16.0421 31.9277 17.3548 33.0801 18.9358 33.8977C20.5164 34.7154 22.2054 35.1242 24.0028 35.1242C25.7991 35.1242 27.4993 34.7162 29.1033 33.9002C30.7073 33.0839 32.0481 31.9336 33.1258 30.4492C33.3758 30.0659 33.7064 29.7492 34.1178 29.4992C34.5291 29.2492 34.9734 29.1242 35.4508 29.1242H41.1508C41.7868 29.2076 42.3249 29.4909 42.7653 29.9742C43.2056 30.4576 43.4258 31.0326 43.4258 31.6992V38.3742H32.3258V33.0242C31.1591 34.0409 29.8778 34.8284 28.4818 35.3867C27.0858 35.9451 25.5899 36.2242 23.9943 36.2242C22.4653 36.2242 20.9883 35.9576 19.5633 35.4242C18.1383 34.8909 16.8758 34.1159 15.7758 33.0992V38.3742H4.67578ZM23.9893 30.8242C22.9316 30.8242 21.9191 30.5826 20.9518 30.0992C19.9844 29.6159 19.1924 28.9067 18.5758 27.9717C18.1341 27.4234 17.6446 26.9242 17.1073 26.4742C16.5696 26.0242 15.9841 25.6409 15.3508 25.3242C16.4508 24.6742 17.8196 24.1951 19.4573 23.8867C21.0953 23.5784 22.6119 23.4242 24.0073 23.4242C25.4363 23.4242 26.9591 23.5784 28.5758 23.8867C30.1924 24.1951 31.5758 24.6742 32.7258 25.3242C32.0758 25.6409 31.4758 26.0242 30.9258 26.4742C30.3758 26.9242 29.9174 27.4242 29.5508 27.9742C28.9174 28.9076 28.1048 29.6159 27.1128 30.0992C26.1211 30.5826 25.0799 30.8242 23.9893 30.8242ZM9.51328 24.6742C8.27161 24.6742 7.20495 24.2267 6.31328 23.3317C5.42161 22.4364 4.97578 21.3756 4.97578 20.1492C4.97578 18.8659 5.42328 17.7826 6.31828 16.8992C7.21361 16.0159 8.27445 15.5742 9.50078 15.5742C10.7841 15.5742 11.8674 16.0159 12.7508 16.8992C13.6341 17.7826 14.0758 18.8617 14.0758 20.1367C14.0758 21.3784 13.6341 22.4451 12.7508 23.3367C11.8674 24.2284 10.7883 24.6742 9.51328 24.6742ZM38.5133 24.6742C37.2716 24.6742 36.2049 24.2267 35.3133 23.3317C34.4216 22.4364 33.9758 21.3756 33.9758 20.1492C33.9758 18.8659 34.4233 17.7826 35.3183 16.8992C36.2136 16.0159 37.2744 15.5742 38.5008 15.5742C39.7841 15.5742 40.8674 16.0159 41.7508 16.8992C42.6341 17.7826 43.0758 18.8617 43.0758 20.1367C43.0758 21.3784 42.6341 22.4451 41.7508 23.3367C40.8674 24.2284 39.7883 24.6742 38.5133 24.6742ZM24.0133 18.6742C22.7716 18.6742 21.7049 18.2267 20.8133 17.3317C19.9216 16.4364 19.4758 15.3756 19.4758 14.1492C19.4758 12.8659 19.9233 11.7826 20.8183 10.8992C21.7136 10.0159 22.7744 9.57422 24.0008 9.57422C25.2841 9.57422 26.3674 10.0159 27.2508 10.8992C28.1341 11.7826 28.5758 12.8617 28.5758 14.1367C28.5758 15.3784 28.1341 16.4451 27.2508 17.3367C26.3674 18.2284 25.2883 18.6742 24.0133 18.6742Z" fill="white"/>
</svg>
