<svg width="48" height="48" viewBox="0 0 48 48" fill="none" xmlns="http://www.w3.org/2000/svg">
<path d="M37.1996 39.3996C34.1663 39.3996 30.9621 38.5621 27.5871 36.8871C24.2121 35.2121 21.0454 32.8746 18.0871 29.8746C15.0954 26.9079 12.7663 23.7496 11.0996 20.3996C9.43294 17.0496 8.59961 13.8464 8.59961 10.7901C8.59961 10.1701 8.80444 9.65011 9.21411 9.23011C9.62344 8.80978 10.1353 8.59961 10.7496 8.59961H14.3861C14.9951 8.59961 15.5038 8.77461 15.9121 9.12461C16.3204 9.47461 16.5996 9.94961 16.7496 10.5496L17.6961 14.4316C17.7484 14.9769 17.7074 15.4684 17.5731 15.9061C17.4391 16.3438 17.2254 16.6929 16.9321 16.9536L12.6746 20.8496C13.5913 22.4829 14.5694 23.9856 15.6091 25.3576C16.6488 26.7296 17.7373 27.9853 18.8746 29.1246C20.1413 30.4579 21.4996 31.6508 22.9496 32.7031C24.3996 33.7558 26.0163 34.7713 27.7996 35.7496L32.0041 31.4496C32.3178 31.0996 32.6648 30.8579 33.0451 30.7246C33.4258 30.5913 33.8606 30.5663 34.3496 30.6496L37.4356 31.3431C38.0449 31.4308 38.5246 31.7041 38.8746 32.1631C39.2246 32.6221 39.3996 33.1509 39.3996 33.7496V37.2496C39.3996 37.8639 39.1901 38.3758 38.7711 38.7851C38.3521 39.1948 37.8283 39.3996 37.1996 39.3996ZM12.1246 19.8996L16.3746 16.0496C16.4913 15.9163 16.5746 15.7329 16.6246 15.4996C16.6746 15.2663 16.6913 15.0496 16.6746 14.8496L15.6496 10.4996C15.6163 10.2329 15.5079 10.0329 15.3246 9.89961C15.1413 9.76628 14.9163 9.69961 14.6496 9.69961H10.4246C10.2079 9.69961 10.0371 9.76628 9.91211 9.89961C9.78711 10.0329 9.72461 10.1996 9.72461 10.3996C9.69128 11.7663 9.88294 13.2496 10.2996 14.8496C10.7163 16.4496 11.3246 18.1329 12.1246 19.8996ZM28.9246 36.2496C30.2413 36.9829 31.7384 37.5163 33.4161 37.8496C35.0938 38.1829 36.4883 38.3496 37.5996 38.3496C37.7996 38.3496 37.9663 38.2829 38.0996 38.1496C38.2329 38.0163 38.2996 37.8496 38.2996 37.6496V33.4496C38.2996 33.1829 38.2329 32.9579 38.0996 32.7746C37.9663 32.5913 37.7663 32.4829 37.4996 32.4496L33.9496 31.6746C33.7496 31.6579 33.5746 31.6746 33.4246 31.7246C33.2746 31.7746 33.1163 31.8579 32.9496 31.9746L28.9246 36.2496Z" fill="white"/>
</svg>
