<svg width="48" height="48" viewBox="0 0 48 48" fill="none" xmlns="http://www.w3.org/2000/svg">
<path d="M23.9803 28.4496C22.4606 28.4496 21.1758 27.9178 20.1258 26.8541C19.0758 25.7904 18.5508 24.4988 18.5508 22.9791C18.5508 21.4594 19.0826 20.1746 20.1463 19.1246C21.2099 18.0746 22.5016 17.5496 24.0213 17.5496C25.5409 17.5496 26.8258 18.0814 27.8758 19.1451C28.9258 20.2088 29.4508 21.5004 29.4508 23.0201C29.4508 24.5398 28.9189 25.8246 27.8553 26.8746C26.7916 27.9246 25.4999 28.4496 23.9803 28.4496ZM24.0173 35.3996C19.8896 35.3996 16.1008 34.2788 12.6508 32.0371C9.20078 29.7954 6.58411 26.7829 4.80078 22.9996C6.58411 19.2163 9.19911 16.2038 12.6458 13.9621C16.0924 11.7204 19.8776 10.5996 24.0013 10.5996C27.9843 10.5996 31.6424 11.6454 34.9758 13.7371C38.3091 15.8288 40.9008 18.6329 42.7508 22.1496H41.5258C39.7828 18.9543 37.3508 16.4138 34.2298 14.5281C31.1084 12.6424 27.6999 11.6996 24.0043 11.6996C20.1176 11.6996 16.5691 12.7148 13.3588 14.7451C10.1488 16.7751 7.69611 19.5266 6.00078 22.9996C7.69611 26.4729 10.1493 29.2246 13.3603 31.2546C16.5709 33.2846 20.1183 34.2996 24.0023 34.2996C24.5989 34.2996 25.1901 34.2746 25.7758 34.2246C26.3614 34.1746 26.9698 34.0829 27.6008 33.9496V35.0496C27.0008 35.1686 26.4063 35.2568 25.8173 35.3141C25.2283 35.3711 24.6283 35.3996 24.0173 35.3996ZM24.0173 29.6496C24.7563 29.6496 25.4629 29.5268 26.1373 29.2811C26.8116 29.0354 27.4141 28.7134 27.9448 28.3151C28.2318 27.5641 28.5776 26.8624 28.9823 26.2101C29.3873 25.5578 29.8934 24.9474 30.5008 24.3791C30.5341 24.1584 30.5674 23.9306 30.6008 23.6956C30.6341 23.4606 30.6508 23.2286 30.6508 22.9996C30.6508 21.1829 29.9949 19.6204 28.6833 18.3121C27.3713 17.0038 25.8046 16.3496 23.9833 16.3496C22.1616 16.3496 20.6008 17.0054 19.3008 18.3171C18.0008 19.6291 17.3508 21.1958 17.3508 23.0171C17.3508 24.8388 18.0066 26.3996 19.3183 27.6996C20.6296 28.9996 22.1959 29.6496 24.0173 29.6496ZM33.0758 39.4496C32.6174 39.4496 32.2571 39.3183 31.9948 39.0556C31.7321 38.7933 31.6008 38.4329 31.6008 37.9746V32.7246C31.6008 32.3246 31.7758 32.0058 32.1258 31.7681C32.4758 31.5304 32.8841 31.4116 33.3508 31.4116V29.2576C33.3508 28.4233 33.6656 27.6968 34.2953 27.0781C34.9249 26.4591 35.6818 26.1496 36.5658 26.1496C37.4361 26.1496 38.1679 26.4556 38.7613 27.0676C39.3543 27.6796 39.6508 28.4153 39.6508 29.2746V31.4181C40.1174 31.4181 40.5258 31.5358 40.8758 31.7711C41.2258 32.0068 41.4008 32.3246 41.4008 32.7246V37.9746C41.4008 38.4329 41.2696 38.7933 41.0073 39.0556C40.7446 39.3183 40.4174 39.4496 40.0258 39.4496H33.0758ZM34.6008 31.3996H38.4008V29.3041C38.4008 28.7244 38.2386 28.2621 37.9143 27.9171C37.5899 27.5721 37.1386 27.3996 36.5603 27.3996C35.9683 27.3996 35.4936 27.5734 35.1363 27.9211C34.7793 28.2688 34.6008 28.7366 34.6008 29.3246V31.3996Z" fill="white"/>
</svg>
