<svg width="215" height="76" viewBox="0 0 215 76" fill="none" xmlns="http://www.w3.org/2000/svg">
<path d="M53.3716 70.2846C71.6652 70.2846 86.495 55.4463 86.495 37.1424C86.495 18.8384 71.6652 4.00012 53.3716 4.00012C35.0781 4.00012 20.2483 18.8384 20.2483 37.1424C20.2483 55.4463 35.0781 70.2846 53.3716 70.2846Z" stroke="url(#paint0_linear_1_1727)" stroke-miterlimit="10"/>
<path fill-rule="evenodd" clip-rule="evenodd" d="M55.1594 6.13132C37.1389 6.13132 22.5301 20.7482 22.5301 38.7794C22.5301 56.8105 37.1389 71.4274 55.1594 71.4274C73.1799 71.4274 87.7887 56.8105 87.7887 38.7794C87.7887 20.7482 73.1799 6.13132 55.1594 6.13132ZM21.9575 38.7794C21.9575 20.4323 36.8224 5.55872 55.1594 5.55872C73.4964 5.55872 88.3613 20.4323 88.3613 38.7794C88.3613 57.1265 73.4964 72 55.1594 72C36.8224 72 21.9575 57.1265 21.9575 38.7794Z" fill="url(#paint1_linear_1_1727)"/>
<path d="M42.3872 7.64992L42.2732 7.44835L42.1037 7.29053C41.793 7.0012 41.2501 6.67987 40.5491 6.79461C39.922 6.89724 39.5334 7.29671 39.3446 7.53511C38.9734 8.00389 38.7471 8.65197 38.593 9.17928C38.2573 10.3281 37.9868 11.9447 37.7626 13.5102C37.6255 14.4673 37.497 15.473 37.3812 16.3788C37.3083 16.9489 37.2406 17.4794 37.1789 17.9333C37.1426 18.2001 37.1085 18.4409 37.0763 18.6538C36.102 18.5776 35.1154 18.4462 34.0788 18.3081C33.5604 18.239 33.0295 18.1682 32.4813 18.1019C30.4736 17.8589 28.3122 17.6904 26.1287 18.0549C25.0723 18.1738 24.0124 18.718 23.3628 19.5405C23.0201 19.9744 22.7303 20.5694 22.7368 21.2755C22.7437 22.0152 23.074 22.6654 23.5904 23.1626L23.9002 23.4608L24.321 23.5496C24.5833 23.605 24.8775 23.644 25.1792 23.6234C25.4899 23.6021 25.8772 23.5119 26.232 23.244C26.6339 22.9405 26.8166 22.5451 26.9008 22.2357C29.773 21.8371 32.7191 22.3834 35.8594 22.9656C35.9714 22.9864 36.0838 23.0072 36.1963 23.0281C36.4028 24.6941 36.2516 26.7369 35.7669 28.856C35.1942 31.3601 34.1874 33.83 32.9229 35.7293C31.3452 37.6949 29.6521 38.375 27.7563 38.5009C25.8822 38.6255 23.8387 38.2148 21.4109 37.727C21.1766 37.6799 20.9387 37.6321 20.697 37.584C18.0431 37.0557 15.0389 36.5214 11.8747 36.8613C8.6604 37.2065 5.3482 38.4429 2.02165 41.3204L1.54887 41.7294L1.50644 42.353C1.48485 42.6703 1.50777 43.1036 1.73124 43.5292C1.9825 44.0078 2.39677 44.3055 2.83371 44.4387C3.21827 44.5559 3.57445 44.5343 3.80917 44.5015C4.05736 44.4667 4.29032 44.4012 4.48164 44.3383C4.79869 44.2341 5.13997 44.0884 5.39816 43.9782C5.44086 43.96 5.48128 43.9427 5.51895 43.9268C5.66794 43.8637 5.78595 43.8154 5.88459 43.7794C5.97748 43.7454 6.01603 43.7364 6.01599 43.7362L6.33024 43.6777L6.59465 43.4943C11.3997 40.1611 15.4198 40.8133 19.6317 41.7883C19.9243 41.856 20.2198 41.9263 20.5181 41.9971C24.4302 42.9266 28.8239 43.9705 33.3986 41.03C34.0723 40.6968 34.612 40.187 35.0436 39.6823C35.0207 40.4015 34.9886 41.1432 34.9535 41.9048C34.9437 42.1181 34.9337 42.3328 34.9236 42.5488C34.8309 44.5307 34.7332 46.6217 34.7566 48.6748C34.8077 53.1737 35.4317 57.8976 38.326 61.3175L38.5281 61.5563L38.8088 61.6944C39.3173 61.9446 39.8811 62.028 40.4487 61.9072C40.9879 61.7925 41.4272 61.5163 41.768 61.2209C42.4221 60.6538 42.9472 59.8094 43.3833 58.9508C44.2733 57.1984 45.1171 54.7114 45.9345 52.2146C46.0556 51.8447 46.1764 51.4736 46.2971 51.1029C47.0092 48.9155 47.7176 46.7392 48.4609 44.8809C48.7689 44.1109 49.0743 43.4177 49.3777 42.818C49.3577 43.1002 49.3288 43.4016 49.2919 43.7193C49.1943 44.5602 49.0537 45.424 48.9204 46.243C48.8941 46.4045 48.8681 46.5643 48.8428 46.7217C48.7038 47.586 48.5514 48.5551 48.5845 49.1931L48.6115 49.714L48.9558 50.1057C49.2406 50.4298 49.6096 50.7619 50.0793 50.9533C50.6081 51.1688 51.2086 51.178 51.7613 50.9049C52.2488 50.664 52.5506 50.2761 52.7296 49.9819C52.9164 49.6748 53.0469 49.3415 53.1419 49.0397C53.4776 47.9724 53.5818 46.5842 53.6025 45.7804C54.5184 42.3823 55.5913 39.615 56.6348 37.6497C57.1666 36.6481 57.6714 35.8917 58.1176 35.3733C58.414 35.0288 58.6397 34.842 58.785 34.7449C58.8902 34.9323 59.0377 35.2876 59.1661 35.906C59.512 37.5712 59.5816 40.436 59.1265 44.7802C58.77 45.3894 58.5808 46.0944 58.482 46.6888C58.3551 47.4523 58.3376 48.2799 58.4511 48.9668C58.5054 49.2949 58.6084 49.7119 58.8305 50.0855C59.0479 50.4514 59.6066 51.1039 60.5628 51.023C61.3405 50.9573 61.8291 50.4209 62.0547 50.1332C62.3297 49.7825 62.5732 49.3323 62.7993 48.8207L62.8512 48.7034L62.8823 48.5789C63.693 45.3421 64.9817 41.5564 66.8145 38.1716C68.5597 34.9487 70.7327 32.2102 73.343 30.5871C73.5251 30.6604 73.6297 30.7878 73.7252 30.9755C73.9395 31.3968 74.0806 32.1553 74.037 33.3429C73.9507 35.6898 73.1908 38.8893 72.2769 42.2911C72.0715 43.0558 71.8582 43.8307 71.6456 44.6035C70.9373 47.1771 70.2355 49.7276 69.8498 51.8003C69.6011 53.1366 69.4501 54.4341 69.5696 55.4866C69.6844 56.4981 70.1563 57.9091 71.7102 58.256L72.4926 58.4307L73.0726 57.8773C74.6697 56.3533 76.1163 54.5087 77.4982 52.6416C77.9279 52.061 78.3493 51.4814 78.7682 50.9051C79.7225 49.5923 80.6643 48.2966 81.6643 47.046C84.5121 43.4844 87.4991 40.7353 91.428 39.9949C92.8661 39.9586 94.2792 40.1178 95.8049 40.2897C96.6134 40.3807 97.4536 40.4754 98.3459 40.5464C100.766 40.739 103.396 40.7196 105.898 39.5734C106.408 39.4552 106.872 39.2137 107.229 38.9769C107.653 38.6956 108.089 38.3122 108.393 37.8713C108.54 37.6573 108.725 37.3317 108.793 36.9258C108.868 36.4704 108.793 35.8647 108.326 35.3763C107.918 34.9503 107.406 34.8239 107.069 34.7828C106.711 34.739 106.333 34.7648 105.964 34.8214L105.708 34.8607L105.48 34.9838C103.384 36.1142 100.766 36.6238 98.4262 36.209C94.6934 34.9347 91.4417 35.0616 88.5811 36.1165C85.7339 37.1665 83.3902 39.0929 81.3877 41.1967C79.8167 42.8471 78.3842 44.688 77.0744 46.3713C76.726 46.819 76.3863 47.2555 76.055 47.6744C75.7038 48.1184 75.3636 48.5402 75.0324 48.9375C75.1441 48.5393 75.2596 48.1379 75.3775 47.7334C75.5146 47.2629 75.6556 46.7866 75.7978 46.3062C76.2734 44.6995 76.7629 43.0458 77.1697 41.403C78.227 37.1334 78.8225 32.5945 77.2027 28.1924L77.1084 27.936L76.9297 27.7294C76.0364 26.6961 74.9713 26.0445 73.7498 25.928C72.557 25.8143 71.4687 26.2359 70.5552 26.8263C68.7801 27.9735 67.1743 30.0808 65.8647 32.0583C65.048 33.2915 64.235 34.6578 63.5494 35.8101C63.5184 35.8622 63.4876 35.9139 63.4571 35.9652C63.3937 35.3355 63.2984 34.6983 63.1535 34.0987C62.9139 33.1078 62.5019 32.0354 61.7309 31.2094C60.9028 30.3223 59.7635 29.832 58.3675 29.8979L58.0117 29.9147L57.7015 30.0896C55.6111 31.2683 54.3047 33.2479 53.3199 35.0716C53.2803 35.1449 53.2409 35.2185 53.2018 35.2924C53.095 34.6917 52.9355 34.0922 52.6959 33.5189L52.3863 32.7781L51.5981 32.6249C50.9754 32.5039 49.9118 32.4303 49.2014 33.2864C48.8788 33.6751 48.7735 34.1044 48.7389 34.4101C48.7047 34.7128 48.7282 34.9964 48.7536 35.202C48.7772 35.3931 48.8125 35.5885 48.8393 35.7369C48.8417 35.7505 48.8441 35.7638 48.8464 35.7766C48.8701 35.9078 48.8871 36.0065 48.8984 36.0891C44.6002 41.6629 42.5092 48.0791 40.4868 54.2848C40.3243 54.7833 40.1623 55.2805 39.9996 55.7758C39.8085 55.0394 39.6365 54.1102 39.4936 53.0047C39.0376 49.4785 38.9301 44.6154 39.1368 39.7745C39.3437 34.9292 39.8608 30.2129 40.6167 26.971C40.993 25.3567 41.3936 24.2694 41.7502 23.7023L42.0969 23.7382C43.2131 23.854 46.6581 24.0807 49.5103 23.8009C50.8641 23.668 52.4022 23.3978 53.4233 22.7279C53.9786 22.3636 54.5751 21.7492 54.6821 20.8183C54.7841 19.93 54.39 19.1518 53.9196 18.5501L52.9 17.2458L51.7023 18.3888C50.7136 19.3324 49.2938 19.6644 47.4071 19.676C46.4757 19.6817 45.5093 19.6104 44.4969 19.5343L44.4387 19.5299C43.6043 19.4671 42.7286 19.4012 41.8872 19.3916C41.8783 19.3303 41.87 19.2552 41.8641 19.1642C41.8142 18.3986 41.9638 17.2636 42.2012 15.8481C42.2481 15.5681 42.2983 15.2783 42.3494 14.9827C42.5419 13.8706 42.7486 12.6761 42.854 11.6053C42.9216 10.919 42.9545 10.2251 42.9075 9.58281C42.8617 8.95784 42.7328 8.26104 42.3872 7.64992ZM23.9811 21.5676C23.981 21.5675 23.9813 21.5643 23.982 21.5585C23.9815 21.5648 23.9811 21.5677 23.9811 21.5676ZM25.7028 21.4198C25.7028 21.4198 25.7032 21.419 25.7042 21.4175C25.7034 21.4191 25.7029 21.4198 25.7028 21.4198ZM59.6664 48.3134C59.6663 48.3124 59.6738 48.3031 59.6889 48.2883C59.674 48.307 59.6664 48.3144 59.6664 48.3134ZM105.923 36.1691C105.922 36.1699 105.921 36.1707 105.921 36.1715C105.924 36.1666 105.925 36.1643 105.925 36.1645C105.925 36.1647 105.924 36.1662 105.923 36.1691ZM26.9881 21.5509C26.9882 21.5508 26.988 21.5527 26.9875 21.5562L26.9878 21.5533C26.988 21.5518 26.9881 21.551 26.9881 21.5509ZM48.9125 36.2855C48.9116 36.2846 48.9112 36.2706 48.9138 36.2467C48.9147 36.2746 48.9134 36.2865 48.9125 36.2855Z" fill="white" stroke="black" stroke-width="3"/>
<path d="M125.719 20.316V31.5H124.599V20.316H125.719ZM125.143 19.388C124.94 19.388 124.764 19.3187 124.615 19.18C124.476 19.0307 124.407 18.8547 124.407 18.652C124.407 18.4493 124.476 18.2787 124.615 18.14C124.764 17.9907 124.94 17.916 125.143 17.916C125.346 17.916 125.516 17.9907 125.655 18.14C125.804 18.2787 125.879 18.4493 125.879 18.652C125.879 18.8547 125.804 19.0307 125.655 19.18C125.516 19.3187 125.346 19.388 125.143 19.388ZM128.847 30.572H133.423V31.5H127.567V30.572L132.063 23.692H127.647V22.764H133.343V23.692L128.847 30.572ZM139.414 22.604C140.459 22.604 141.312 22.9293 141.974 23.58C142.635 24.22 142.966 25.1533 142.966 26.38V31.5H141.862V26.508C141.862 25.5587 141.622 24.8333 141.142 24.332C140.672 23.8307 140.027 23.58 139.206 23.58C138.363 23.58 137.691 23.8467 137.19 24.38C136.688 24.9133 136.438 25.6973 136.438 26.732V31.5H135.318V22.764H136.438V24.252C136.715 23.7187 137.115 23.3133 137.638 23.036C138.16 22.748 138.752 22.604 139.414 22.604ZM146.003 21.116C145.779 21.116 145.587 21.036 145.427 20.876C145.267 20.716 145.187 20.5187 145.187 20.284C145.187 20.0493 145.267 19.8573 145.427 19.708C145.587 19.548 145.779 19.468 146.003 19.468C146.227 19.468 146.419 19.548 146.579 19.708C146.739 19.8573 146.819 20.0493 146.819 20.284C146.819 20.5187 146.739 20.716 146.579 20.876C146.419 21.036 146.227 21.116 146.003 21.116ZM146.563 22.764V31.5H145.443V22.764H146.563ZM153.819 31.5L150.219 27.58V31.5H149.099V19.66H150.219V26.668L153.739 22.764H155.307L151.163 27.116L155.339 31.5H153.819ZM132.023 44.332V46.14H129.047V55.5H126.807V46.14H123.831V44.332H132.023ZM140.505 53.372H136.057L135.321 55.5H132.969L136.985 44.316H139.593L143.609 55.5H141.241L140.505 53.372ZM139.897 51.58L138.281 46.908L136.665 51.58H139.897ZM152.918 52.268C152.918 52.8013 152.79 53.3027 152.534 53.772C152.289 54.2413 151.921 54.636 151.43 54.956C150.95 55.276 150.374 55.4787 149.702 55.564V56.3C150.289 56.3 150.78 56.4493 151.174 56.748C151.58 57.0467 151.782 57.4787 151.782 58.044C151.782 58.62 151.574 59.0627 151.158 59.372C150.753 59.6813 150.252 59.836 149.654 59.836H147.382V58.524H149.286C149.542 58.524 149.734 58.4867 149.862 58.412C150.001 58.3373 150.07 58.204 150.07 58.012C150.07 57.82 150.001 57.6867 149.862 57.612C149.734 57.548 149.542 57.516 149.286 57.516H148.294V55.58C147.27 55.4627 146.438 55.116 145.798 54.54C145.158 53.964 144.833 53.212 144.822 52.284H147.222C147.254 52.7427 147.414 53.1053 147.702 53.372C148.001 53.6387 148.406 53.772 148.918 53.772C149.441 53.772 149.852 53.6493 150.15 53.404C150.449 53.148 150.598 52.8173 150.598 52.412C150.598 52.0813 150.497 51.8093 150.294 51.596C150.092 51.3827 149.836 51.2173 149.526 51.1C149.228 50.972 148.812 50.8333 148.278 50.684C147.553 50.4707 146.961 50.2627 146.502 50.06C146.054 49.8467 145.665 49.532 145.334 49.116C145.014 48.6893 144.854 48.124 144.854 47.42C144.854 46.7587 145.02 46.1827 145.35 45.692C145.681 45.2013 146.145 44.828 146.742 44.572C147.34 44.3053 148.022 44.172 148.79 44.172C149.942 44.172 150.876 44.4547 151.59 45.02C152.316 45.5747 152.716 46.3533 152.79 47.356H150.326C150.305 46.972 150.14 46.6573 149.83 46.412C149.532 46.156 149.132 46.028 148.63 46.028C148.193 46.028 147.841 46.14 147.574 46.364C147.318 46.588 147.19 46.9133 147.19 47.34C147.19 47.6387 147.286 47.8893 147.478 48.092C147.681 48.284 147.926 48.444 148.214 48.572C148.513 48.6893 148.929 48.828 149.462 48.988C150.188 49.2013 150.78 49.4147 151.238 49.628C151.697 49.8413 152.092 50.1613 152.422 50.588C152.753 51.0147 152.918 51.5747 152.918 52.268ZM170.849 44.332V55.5H168.609V48.236L165.617 55.5H163.921L160.913 48.236V55.5H158.673V44.332H161.217L164.769 52.636L168.321 44.332H170.849ZM179.911 53.372H175.463L174.727 55.5H172.375L176.391 44.316H178.999L183.015 55.5H180.647L179.911 53.372ZM179.303 51.58L177.687 46.908L176.071 51.58H179.303ZM193.781 44.332V55.5H191.541V50.748H186.757V55.5H184.517V44.332H186.757V48.924H191.541V44.332H193.781ZM202.833 53.372H198.385L197.649 55.5H195.297L199.313 44.316H201.921L205.937 55.5H203.569L202.833 53.372ZM202.225 51.58L200.609 46.908L198.993 51.58H202.225ZM209.678 53.724H213.358V55.5H207.438V44.332H209.678V53.724Z" fill="white"/>
<defs>
<linearGradient id="paint0_linear_1_1727" x1="19.9675" y1="37.1424" x2="86.7758" y2="37.1424" gradientUnits="userSpaceOnUse">
<stop stop-color="#E6C720"/>
<stop offset="0.1" stop-color="#E6C721"/>
<stop offset="0.14" stop-color="#E7C928"/>
<stop offset="0.17" stop-color="#E9CE34"/>
<stop offset="0.19" stop-color="#EBD345"/>
<stop offset="0.21" stop-color="#EEDB5B"/>
<stop offset="0.22" stop-color="#F2E475"/>
<stop offset="0.24" stop-color="#F8F098"/>
<stop offset="0.27" stop-color="#EDE083"/>
<stop offset="0.45" stop-color="#B58812"/>
<stop offset="0.53" stop-color="#C19923"/>
<stop offset="0.69" stop-color="#E0C652"/>
<stop offset="0.81" stop-color="#FBED79"/>
<stop offset="0.83" stop-color="#F1D666"/>
<stop offset="0.88" stop-color="#DEAA43"/>
<stop offset="0.93" stop-color="#D08929"/>
<stop offset="0.97" stop-color="#C87619"/>
<stop offset="1" stop-color="#C56F14"/>
</linearGradient>
<linearGradient id="paint1_linear_1_1727" x1="21.8694" y1="38.7794" x2="88.4512" y2="38.7794" gradientUnits="userSpaceOnUse">
<stop stop-color="#E6C720"/>
<stop offset="0.1" stop-color="#E6C721"/>
<stop offset="0.14" stop-color="#E7C928"/>
<stop offset="0.17" stop-color="#E9CE34"/>
<stop offset="0.19" stop-color="#EBD345"/>
<stop offset="0.21" stop-color="#EEDB5B"/>
<stop offset="0.22" stop-color="#F2E475"/>
<stop offset="0.24" stop-color="#F8F098"/>
<stop offset="0.27" stop-color="#EDE083"/>
<stop offset="0.45" stop-color="#B58812"/>
<stop offset="0.53" stop-color="#C19923"/>
<stop offset="0.69" stop-color="#E0C652"/>
<stop offset="0.81" stop-color="#FBED79"/>
<stop offset="0.83" stop-color="#F1D666"/>
<stop offset="0.88" stop-color="#DEAA43"/>
<stop offset="0.93" stop-color="#D08929"/>
<stop offset="0.97" stop-color="#C87619"/>
<stop offset="1" stop-color="#C56F14"/>
</linearGradient>
</defs>
</svg>
