<svg width="16" height="17" viewBox="0 0 16 17" fill="none" xmlns="http://www.w3.org/2000/svg">
<path d="M14.9307 16.271C13.2449 16.271 11.5167 15.8489 9.74625 15.0047C7.97575 14.1604 6.32767 12.9754 4.802 11.4497C3.28917 9.92425 2.11058 8.27941 1.26625 6.51525C0.422083 4.75108 0 3.02608 0 1.34025C0 1.04025 0.1 0.786996 0.3 0.580496C0.5 0.374163 0.75 0.270996 1.05 0.270996H3.523C3.79483 0.270996 4.032 0.35658 4.2345 0.527747C4.43717 0.698913 4.57442 0.918496 4.64625 1.1865L5.14225 3.571C5.18842 3.8505 5.18008 4.09475 5.11725 4.30375C5.05442 4.51275 4.9435 4.68391 4.7845 4.81725L2.5905 6.86325C3.00067 7.60808 3.45417 8.30008 3.951 8.93925C4.44783 9.57841 4.97767 10.1838 5.5405 10.7555C6.12117 11.3363 6.74617 11.8764 7.4155 12.3757C8.08467 12.8751 8.81925 13.3466 9.61925 13.7902L11.7578 11.6132C11.9206 11.4376 12.1036 11.3219 12.3068 11.2662C12.5099 11.2104 12.7346 11.1992 12.9808 11.2325L15.0845 11.6632C15.3563 11.7299 15.5769 11.8668 15.7462 12.074C15.9154 12.281 16 12.5185 16 12.7865V15.221C16 15.521 15.8968 15.771 15.6905 15.971C15.484 16.171 15.2308 16.271 14.9307 16.271Z" fill="white"/>
</svg>
