<svg width="17" height="17" viewBox="0 0 17 17" fill="none" xmlns="http://www.w3.org/2000/svg">
<path d="M15.0338 16.0526C13.3479 16.0526 11.6198 15.6305 9.84928 14.7863C8.07878 13.942 6.43069 12.757 4.90503 11.2313C3.39219 9.70585 2.21361 8.06101 1.36928 6.29685C0.525111 4.53268 0.103027 2.80768 0.103027 1.12185C0.103027 0.821847 0.203027 0.568597 0.403027 0.362097C0.603027 0.155764 0.853027 0.052597 1.15303 0.052597H3.62603C3.89786 0.052597 4.13503 0.138181 4.33753 0.309348C4.54019 0.480514 4.67744 0.700097 4.74928 0.968097L5.24528 3.3526C5.29144 3.6321 5.28311 3.87635 5.22028 4.08535C5.15744 4.29435 5.04653 4.46551 4.88753 4.59885L2.69353 6.64485C3.10369 7.38968 3.55719 8.08168 4.05403 8.72085C4.55086 9.36001 5.08069 9.96543 5.64353 10.5371C6.22419 11.1179 6.84919 11.658 7.51853 12.1573C8.18769 12.6567 8.92228 13.1282 9.72228 13.5718L11.8608 11.3948C12.0236 11.2192 12.2066 11.1035 12.4098 11.0478C12.6129 10.992 12.8376 10.9808 13.0838 11.0141L15.1875 11.4448C15.4594 11.5115 15.6799 11.6484 15.8493 11.8556C16.0184 12.0626 16.103 12.3001 16.103 12.5681V15.0026C16.103 15.3026 15.9999 15.5526 15.7935 15.7526C15.587 15.9526 15.3338 16.0526 15.0338 16.0526Z" fill="#97BC62"/>
</svg>
