<svg width="36" height="54" viewBox="0 0 36 54" fill="none" xmlns="http://www.w3.org/2000/svg">
<path d="M18 54C13.1615 54 9.202 53.4068 6.1215 52.2203C3.0405 51.0333 1.5 49.5303 1.5 47.7113C1.5 46.7578 2.0365 45.8185 3.1095 44.8935C4.1825 43.9685 5.64225 43.2078 7.48875 42.6113L9.24825 43.9733C8.17125 44.3388 7.08075 44.878 5.97675 45.591C4.87325 46.3045 4.12525 46.992 3.73275 47.6535C4.19825 48.7305 5.778 49.673 8.472 50.481C11.1665 51.2885 14.333 51.6922 17.9715 51.6922C21.6095 51.6922 24.7883 51.2885 27.5078 50.481C30.2268 49.673 31.819 48.7305 32.2845 47.6535C31.969 46.9805 31.1902 46.2903 29.9482 45.5828C28.7057 44.8753 27.546 44.358 26.469 44.031L28.2465 42.6113C30.231 43.2078 31.7693 43.9588 32.8613 44.8643C33.9538 45.7703 34.5 46.7108 34.5 47.6858C34.5 49.5123 32.9595 51.0212 29.8785 52.2127C26.798 53.4042 22.8385 54 18 54ZM18.075 42.0863C23.3325 38.0363 27.2498 34.042 29.8268 30.1035C32.4038 26.1655 33.6923 22.4348 33.6923 18.9113C33.6923 13.4283 32.0038 9.29025 28.6268 6.49725C25.2498 3.70425 21.717 2.30775 18.0285 2.30775C14.352 2.30775 10.8127 3.70575 7.41075 6.50175C4.00875 9.29775 2.30775 13.44 2.30775 18.9285C2.30775 22.5285 3.6155 26.246 6.231 30.081C8.846 33.9155 12.794 37.9173 18.075 42.0863ZM18 45C12.007 40.411 7.50875 35.9543 4.50525 31.6298C1.50175 27.3053 0 23.069 0 18.921C0 15.788 0.551001 13.0473 1.653 10.6988C2.755 8.35075 4.1645 6.3825 5.8815 4.794C7.599 3.2055 9.52525 2.0095 11.6602 1.206C13.7947 0.402001 15.911 0 18.009 0C20.107 0 22.2233 0.402001 24.3578 1.206C26.4923 2.0095 28.425 3.2055 30.156 4.794C31.8865 6.3825 33.2932 8.3525 34.3762 10.704C35.4587 13.055 36 15.7908 36 18.9113C36 23.0608 34.5107 27.2985 31.5322 31.6245C28.5537 35.9505 24.043 40.409 18 45ZM18.0285 23.3655C19.352 23.3655 20.4857 22.903 21.4297 21.978C22.3742 21.053 22.8465 19.9098 22.8465 18.5483C22.8465 17.1868 22.3718 16.0338 21.4223 15.0893C20.4733 14.1453 19.3325 13.6733 18 13.6733C16.696 13.6733 15.5623 14.1477 14.5988 15.0967C13.6353 16.0457 13.1535 17.1865 13.1535 18.519C13.1535 19.9 13.6353 21.053 14.5988 21.978C15.5623 22.903 16.7055 23.3655 18.0285 23.3655Z" fill="#97BC62"/>
</svg>
