<svg width="101" height="101" viewBox="0 0 101 101" fill="none" xmlns="http://www.w3.org/2000/svg">
<circle cx="50.1252" cy="50.4694" r="50.0104" fill="#97BC62"/>
<path d="M34.8912 64.4726C34.1227 64.4726 33.4689 64.2032 32.9298 63.6645C32.391 63.1253 32.1216 62.4715 32.1216 61.703V39.2364C32.1216 38.4679 32.391 37.8141 32.9298 37.275C33.4689 36.7362 34.1227 36.4668 34.8912 36.4668H65.3595C66.128 36.4668 66.7818 36.7362 67.3209 37.275C67.8597 37.8141 68.1291 38.4679 68.1291 39.2364V61.703C68.1291 62.4715 67.8597 63.1253 67.3209 63.6645C66.7818 64.2032 66.128 64.4726 65.3595 64.4726H34.8912ZM50.1253 50.1771L33.6604 39.1789V61.703C33.6604 62.0618 33.7758 62.3567 34.0065 62.5877C34.2375 62.8184 34.5324 62.9338 34.8912 62.9338H65.3595C65.7182 62.9338 66.0131 62.8184 66.2442 62.5877C66.4749 62.3567 66.5903 62.0618 66.5903 61.703V39.1789L50.1253 50.1771ZM50.1253 48.4078L65.8901 38.0056H34.4106L50.1253 48.4078ZM33.6604 39.1789V38.0056V61.703C33.6604 62.0618 33.7758 62.3567 34.0065 62.5877C34.2375 62.8184 34.5324 62.9338 34.8912 62.9338H33.6604V39.1789Z" fill="white"/>
</svg>
