<svg width="101" height="101" viewBox="0 0 101 101" fill="none" xmlns="http://www.w3.org/2000/svg">
<circle cx="50.0407" cy="50.4694" r="50.0104" fill="#97BC62"/>
<path d="M48.5403 77.9697C43.7018 77.9697 39.7423 77.3765 36.6618 76.19C33.5808 75.003 32.0403 73.5 32.0403 71.681C32.0403 70.7275 32.5768 69.7882 33.6498 68.8632C34.7228 67.9382 36.1825 67.1775 38.029 66.581L39.7885 67.943C38.7115 68.3085 37.621 68.8477 36.517 69.5607C35.4135 70.2742 34.6655 70.9617 34.273 71.6232C34.7385 72.7002 36.3183 73.6427 39.0123 74.4507C41.7068 75.2582 44.8733 75.662 48.5118 75.662C52.1498 75.662 55.3285 75.2582 58.048 74.4507C60.767 73.6427 62.3593 72.7002 62.8248 71.6232C62.5093 70.9502 61.7305 70.26 60.4885 69.5525C59.246 68.845 58.0863 68.3277 57.0093 68.0007L58.7868 66.581C60.7713 67.1775 62.3095 67.9285 63.4015 68.834C64.494 69.74 65.0403 70.6805 65.0403 71.6555C65.0403 73.482 63.4998 74.991 60.4188 76.1825C57.3383 77.374 53.3788 77.9697 48.5403 77.9697ZM48.6153 66.056C53.8728 62.006 57.79 58.0117 60.367 54.0732C62.944 50.1352 64.2325 46.4045 64.2325 42.881C64.2325 37.398 62.544 33.26 59.167 30.467C55.79 27.674 52.2573 26.2775 48.5688 26.2775C44.8923 26.2775 41.353 27.6755 37.951 30.4715C34.549 33.2675 32.848 37.4097 32.848 42.8982C32.848 46.4982 34.1558 50.2157 36.7713 54.0507C39.3863 57.8852 43.3343 61.887 48.6153 66.056ZM48.5403 68.9697C42.5473 64.3807 38.049 59.924 35.0455 55.5995C32.042 51.275 30.5403 47.0387 30.5403 42.8907C30.5403 39.7577 31.0913 37.017 32.1933 34.6685C33.2953 32.3205 34.7048 30.3522 36.4218 28.7637C38.1393 27.1752 40.0655 25.9792 42.2005 25.1757C44.335 24.3717 46.4513 23.9697 48.5493 23.9697C50.6473 23.9697 52.7635 24.3717 54.898 25.1757C57.0325 25.9792 58.9653 27.1752 60.6963 28.7637C62.4268 30.3522 63.8335 32.3222 64.9165 34.6737C65.999 37.0247 66.5403 39.7605 66.5403 42.881C66.5403 47.0305 65.051 51.2682 62.0725 55.5942C59.094 59.9202 54.5833 64.3787 48.5403 68.9697ZM48.5688 47.3352C49.8923 47.3352 51.026 46.8727 51.97 45.9477C52.9145 45.0227 53.3868 43.8795 53.3868 42.518C53.3868 41.1565 52.912 40.0035 51.9625 39.059C51.0135 38.115 49.8728 37.643 48.5403 37.643C47.2363 37.643 46.1025 38.1175 45.139 39.0665C44.1755 40.0155 43.6938 41.1562 43.6938 42.4887C43.6938 43.8697 44.1755 45.0227 45.139 45.9477C46.1025 46.8727 47.2458 47.3352 48.5688 47.3352Z" fill="white"/>
</svg>
