<svg width="101" height="101" viewBox="0 0 101 101" fill="none" xmlns="http://www.w3.org/2000/svg">
<circle cx="50.2091" cy="50.4694" r="50.0104" fill="#97BC62"/>
<path d="M65.8067 68.4733C62.0128 68.4733 58.1236 67.5234 54.1392 65.6237C50.1547 63.7235 46.4458 61.0567 43.0123 57.6232C39.6077 54.1902 36.9554 50.4885 35.0552 46.5183C33.1555 42.5481 32.2056 38.666 32.2056 34.8721C32.2056 34.197 32.4306 33.6271 32.8807 33.1623C33.3308 32.698 33.8934 32.4658 34.5686 32.4658H40.134C40.7457 32.4658 41.2795 32.6584 41.7352 33.0436C42.1913 33.4288 42.5001 33.923 42.6618 34.5261L43.778 39.8924C43.8819 40.5214 43.8632 41.071 43.7218 41.5414C43.5804 42.0117 43.3308 42.3969 42.9729 42.697L38.0354 47.3015C38.9585 48.9777 39.9791 50.535 41.0972 51.9734C42.2153 53.4119 43.4076 54.7743 44.6743 56.0609C45.9811 57.368 47.3876 58.5834 48.8939 59.7072C50.3999 60.8309 52.053 61.892 53.8534 62.8905L58.666 57.9912C59.0325 57.5959 59.4443 57.3356 59.9015 57.2103C60.3587 57.0846 60.8643 57.0593 61.4183 57.1343L66.1528 58.1037C66.7645 58.2537 67.2609 58.5619 67.642 59.0281C68.0227 59.4939 68.2131 60.0284 68.2131 60.6316V66.1103C68.2131 66.7855 67.9809 67.3481 67.5165 67.7982C67.0518 68.2483 66.4819 68.4733 65.8067 68.4733Z" fill="white"/>
</svg>
