<svg width="133" height="34" viewBox="0 0 133 34" fill="none" xmlns="http://www.w3.org/2000/svg">
<path d="M57.6305 7.59666V16.7227H57.0455V7.59666H57.6305ZM57.3445 6.94666C57.2058 6.94666 57.0888 6.89899 56.9935 6.80366C56.8982 6.70832 56.8505 6.59132 56.8505 6.45266C56.8505 6.31399 56.8982 6.19699 56.9935 6.10166C57.0888 6.00632 57.2058 5.95866 57.3445 5.95866C57.4832 5.95866 57.6002 6.00632 57.6955 6.10166C57.7908 6.19699 57.8385 6.31399 57.8385 6.45266C57.8385 6.59132 57.7908 6.70832 57.6955 6.80366C57.6002 6.89899 57.4832 6.94666 57.3445 6.94666ZM59.801 16.2287H63.779V16.7227H59.151V16.2287L63.025 10.1577H59.242V9.66366H63.688V10.1577L59.801 16.2287ZM68.4698 9.52066C69.3104 9.52066 69.9951 9.78066 70.5238 10.3007C71.0524 10.812 71.3168 11.5747 71.3168 12.5887V16.7227H70.7448V12.6277C70.7448 11.787 70.5324 11.1457 70.1078 10.7037C69.6831 10.253 69.1068 10.0277 68.3788 10.0277C67.6161 10.0277 67.0051 10.2703 66.5458 10.7557C66.0951 11.241 65.8698 11.9603 65.8698 12.9137V16.7227H65.2848V9.66366H65.8698V11.1587C66.0691 10.63 66.3984 10.227 66.8578 9.94966C67.3258 9.66366 67.8631 9.52066 68.4698 9.52066ZM73.6834 8.09066C73.5447 8.09066 73.4277 8.04732 73.3324 7.96066C73.237 7.86532 73.1894 7.73966 73.1894 7.58366C73.1894 7.43632 73.237 7.31499 73.3324 7.21966C73.4277 7.12432 73.5447 7.07666 73.6834 7.07666C73.822 7.07666 73.939 7.12432 74.0344 7.21966C74.1297 7.31499 74.1774 7.43632 74.1774 7.58366C74.1774 7.73966 74.1297 7.86532 74.0344 7.96066C73.939 8.04732 73.822 8.09066 73.6834 8.09066ZM73.9694 9.66366V16.7227H73.3844V9.66366H73.9694ZM79.7799 16.7227L76.6989 13.4857V16.7227H76.1139V7.10266H76.6989V12.8617L79.7279 9.66366H80.5469L77.1279 13.1737L80.5859 16.7227H79.7799ZM63.0515 20.6487V22.1177H60.6335V29.7227H58.8135V22.1177H56.3955V20.6487H63.0515ZM69.9434 27.9937H66.3294L65.7314 29.7227H63.8204L67.0834 20.6357H69.2024L72.4654 29.7227H70.5414L69.9434 27.9937ZM69.4494 26.5377L68.1364 22.7417L66.8234 26.5377H69.4494ZM80.0291 27.0967C80.0291 27.53 79.9251 27.9373 79.7171 28.3187C79.5178 28.7 79.2188 29.0207 78.8201 29.2807C78.4301 29.5407 77.9621 29.7053 77.4161 29.7747V30.3727C77.8928 30.3727 78.2914 30.494 78.6121 30.7367C78.9414 30.9793 79.1061 31.3303 79.1061 31.7897C79.1061 32.2577 78.9371 32.6173 78.5991 32.8687C78.2698 33.12 77.8624 33.2457 77.3771 33.2457H75.5311V32.1797H77.0781C77.2861 32.1797 77.4421 32.1493 77.5461 32.0887C77.6588 32.028 77.7151 31.9197 77.7151 31.7637C77.7151 31.6077 77.6588 31.4993 77.5461 31.4387C77.4421 31.3867 77.2861 31.3607 77.0781 31.3607H76.2721V29.7877C75.4401 29.6923 74.7641 29.4107 74.2441 28.9427C73.7241 28.4747 73.4598 27.8637 73.4511 27.1097H75.4011C75.4271 27.4823 75.5571 27.777 75.7911 27.9937C76.0338 28.2103 76.3631 28.3187 76.7791 28.3187C77.2038 28.3187 77.5374 28.219 77.7801 28.0197C78.0228 27.8117 78.1441 27.543 78.1441 27.2137C78.1441 26.945 78.0618 26.724 77.8971 26.5507C77.7324 26.3773 77.5244 26.243 77.2731 26.1477C77.0304 26.0437 76.6924 25.931 76.2591 25.8097C75.6698 25.6363 75.1888 25.4673 74.8161 25.3027C74.4521 25.1293 74.1358 24.8737 73.8671 24.5357C73.6071 24.189 73.4771 23.7297 73.4771 23.1577C73.4771 22.6203 73.6114 22.1523 73.8801 21.7537C74.1488 21.355 74.5258 21.0517 75.0111 20.8437C75.4964 20.627 76.0511 20.5187 76.6751 20.5187C77.6111 20.5187 78.3694 20.7483 78.9501 21.2077C79.5394 21.6583 79.8644 22.291 79.9251 23.1057H77.9231C77.9058 22.7937 77.7714 22.538 77.5201 22.3387C77.2774 22.1307 76.9524 22.0267 76.5451 22.0267C76.1898 22.0267 75.9038 22.1177 75.6871 22.2997C75.4791 22.4817 75.3751 22.746 75.3751 23.0927C75.3751 23.3353 75.4531 23.539 75.6091 23.7037C75.7738 23.8597 75.9731 23.9897 76.2071 24.0937C76.4498 24.189 76.7878 24.3017 77.2211 24.4317C77.8104 24.605 78.2914 24.7783 78.6641 24.9517C79.0368 25.125 79.3574 25.385 79.6261 25.7317C79.8948 26.0783 80.0291 26.5333 80.0291 27.0967ZM94.5976 20.6487V29.7227H92.7776V23.8207L90.3466 29.7227H88.9686L86.5246 23.8207V29.7227H84.7046V20.6487H86.7716L89.6576 27.3957L92.5436 20.6487H94.5976ZM101.961 27.9937H98.347L97.749 29.7227H95.838L99.101 20.6357H101.22L104.483 29.7227H102.559L101.961 27.9937ZM101.467 26.5377L100.154 22.7417L98.841 26.5377H101.467ZM113.23 20.6487V29.7227H111.41V25.8617H107.523V29.7227H105.703V20.6487H107.523V24.3797H111.41V20.6487H113.23ZM120.585 27.9937H116.971L116.373 29.7227H114.462L117.725 20.6357H119.844L123.107 29.7227H121.183L120.585 27.9937ZM120.091 26.5377L118.778 22.7417L117.465 26.5377H120.091ZM126.147 28.2797H129.137V29.7227H124.327V20.6487H126.147V28.2797Z" fill="white"/>
<path d="M24.309 31.3308C32.7919 31.3308 39.6687 24.45 39.6687 15.9623C39.6687 7.47446 32.7919 0.59375 24.309 0.59375C15.826 0.59375 8.94922 7.47446 8.94922 15.9623C8.94922 24.45 15.826 31.3308 24.309 31.3308Z" stroke="url(#paint0_linear_1120_1379)" stroke-miterlimit="10"/>
<path fill-rule="evenodd" clip-rule="evenodd" d="M25.1393 1.58388C16.783 1.58388 10.0087 8.36192 10.0087 16.7232C10.0087 25.0845 16.783 31.8626 25.1393 31.8626C33.4957 31.8626 40.2699 25.0845 40.2699 16.7232C40.2699 8.36192 33.4957 1.58388 25.1393 1.58388ZM9.74316 16.7232C9.74316 8.21542 16.6362 1.31836 25.1393 1.31836C33.6425 1.31836 40.5355 8.21542 40.5355 16.7232C40.5355 25.231 33.6425 32.1281 25.1393 32.1281C16.6362 32.1281 9.74316 25.231 9.74316 16.7232Z" fill="url(#paint1_linear_1120_1379)"/>
<path d="M18.7842 2.52993L18.769 2.50305L18.7464 2.48201C18.6719 2.41266 18.5676 2.35808 18.4432 2.37844C18.3287 2.39717 18.2471 2.47227 18.1931 2.54043C18.086 2.67567 18.0023 2.89293 17.9318 3.13417C17.7872 3.6292 17.6657 4.3469 17.5616 5.07372C17.4982 5.51657 17.44 5.97176 17.387 6.38708C17.3531 6.65266 17.3212 6.90193 17.2914 7.12125C17.2528 7.40583 17.2175 7.64002 17.1851 7.8026C17.1767 7.84473 17.1689 7.88006 17.1617 7.90899C16.5415 7.88556 15.9155 7.8021 15.2751 7.71674C15.0396 7.68535 14.8022 7.65371 14.5625 7.62469C13.6368 7.51267 12.6881 7.4422 11.7441 7.60206C11.3685 7.64082 10.9963 7.83633 10.7826 8.10695C10.6734 8.24517 10.5972 8.41427 10.599 8.59978C10.6007 8.78975 10.684 8.9694 10.8429 9.12241L10.8842 9.16217L10.9403 9.17401C11.1206 9.21206 11.2964 9.2192 11.4255 9.1217C11.559 9.0209 11.5699 8.8614 11.5747 8.79218L11.5747 8.79143C11.5761 8.7706 11.577 8.75447 11.5777 8.74023C11.5787 8.71991 11.5795 8.70344 11.5817 8.68267C11.5847 8.65284 11.5889 8.63768 11.5921 8.63C11.5929 8.62817 11.5935 8.62714 11.5938 8.62666C11.5938 8.62661 11.5939 8.62654 11.594 8.62646C11.5954 8.62544 11.6086 8.61648 11.6474 8.61082L11.6474 8.61099L11.6555 8.60945C13.1761 8.323 14.7318 8.61256 16.2815 8.90101C16.4471 8.93183 16.6127 8.96264 16.7781 8.99273C16.962 9.90829 16.8956 11.0631 16.6287 12.23C16.3504 13.447 15.8581 14.658 15.2272 15.5997C14.3991 16.6399 13.4773 17.0192 12.4639 17.0865C11.525 17.1489 10.5106 16.9446 9.40291 16.7215C9.28984 16.6987 9.1758 16.6758 9.06077 16.6529C7.83108 16.4081 6.50417 16.1757 5.11943 16.3244C3.728 16.4739 2.28704 17.0067 0.82171 18.2742L0.758673 18.3288L0.753015 18.4119C0.74643 18.5087 0.756366 18.6072 0.801598 18.6933C0.850536 18.7865 0.929765 18.8443 1.01854 18.8714C1.10034 18.8963 1.18487 18.894 1.25771 18.8838C1.33234 18.8733 1.40944 18.8525 1.48345 18.8281C1.60826 18.7871 1.74345 18.7295 1.86484 18.6777C1.88571 18.6688 1.90618 18.6601 1.92611 18.6517C2.07203 18.5899 2.18326 18.5465 2.25816 18.5326L2.30034 18.5248L2.3356 18.5003C4.74345 16.83 6.78886 17.1738 8.77529 17.6336C8.90623 17.6639 9.03715 17.6949 9.16808 17.7258C11.0117 18.1612 12.8574 18.5972 14.8042 17.3319C15.2236 17.1352 15.5154 16.7296 15.7684 16.3781L15.7729 16.3719C15.9601 16.1118 16.1284 15.8791 16.3151 15.7089C16.337 16.4772 16.3038 17.3167 16.2635 18.1932C16.2589 18.2922 16.2543 18.3915 16.2496 18.4913C16.2066 19.4125 16.162 20.3674 16.1727 21.3041C16.1962 23.3732 16.4882 25.4079 17.7106 26.8522L17.7375 26.884L17.7749 26.9025C17.9171 26.9724 18.0655 26.9926 18.2135 26.9611C18.3577 26.9304 18.4877 26.8537 18.6038 26.7531C18.8323 26.555 19.0407 26.2343 19.2356 25.8505C19.6279 25.0782 20.0078 23.9631 20.3895 22.7971C20.4451 22.6273 20.5007 22.4564 20.5565 22.2851C20.8862 21.272 21.2206 20.2447 21.5719 19.3665C21.777 18.8536 21.9857 18.3974 22.1995 18.0284C22.3839 17.7103 22.5655 17.4686 22.7429 17.3105C22.831 17.3785 22.9053 17.5242 22.9429 17.7983C22.9895 18.1371 22.9657 18.5857 22.9096 19.069C22.8629 19.4712 22.7956 19.885 22.7337 20.2648C22.7217 20.3389 22.7098 20.4117 22.6984 20.4828C22.6302 20.9064 22.5722 21.2938 22.5842 21.5245L22.5878 21.5939L22.6337 21.6461C22.7402 21.7673 22.8512 21.8592 22.9695 21.9074C23.0956 21.9588 23.2252 21.9578 23.3429 21.8996C23.4519 21.8458 23.5306 21.7528 23.5881 21.6583C23.6466 21.5621 23.6927 21.4484 23.7299 21.3303C23.8729 20.8755 23.9166 20.242 23.922 19.8972C24.3569 18.2696 24.8727 16.929 25.3847 15.9649C25.642 15.4802 25.8958 15.0956 26.1343 14.8184C26.3763 14.5372 26.5869 14.3851 26.7534 14.3339C26.8329 14.3095 26.8986 14.3091 26.9547 14.3243C27.0109 14.3396 27.0712 14.3744 27.1338 14.4418C27.2642 14.5823 27.3903 14.8495 27.4814 15.2879C27.6608 16.1519 27.6843 17.5783 27.4583 19.6716C27.3061 19.8886 27.2151 20.1852 27.1678 20.4701C27.1161 20.7809 27.1113 21.109 27.1535 21.3643C27.1743 21.4899 27.209 21.6139 27.2665 21.7107C27.3234 21.8065 27.4329 21.9192 27.6021 21.9049C27.7474 21.8926 27.8609 21.7884 27.9457 21.6803C28.037 21.5638 28.1305 21.397 28.2276 21.1772L28.2345 21.1615L28.2387 21.1449C28.6215 19.6164 29.232 17.8194 30.107 16.2033C30.9727 14.6047 32.0877 13.2008 33.4807 12.3983C33.8293 12.4333 34.0486 12.6016 34.1891 12.8777C34.346 13.1861 34.4085 13.6399 34.3872 14.2184C34.3448 15.3715 33.9761 16.9083 33.5544 18.4782C33.4567 18.8419 33.3561 19.2073 33.2565 19.5695C32.9294 20.7583 32.6121 21.9113 32.4375 22.8498C32.3239 23.4604 32.2661 24.0015 32.3128 24.4126C32.3588 24.8182 32.5209 25.1797 32.921 25.2691L33.0253 25.2924L33.1027 25.2186C33.8106 24.543 34.4605 23.7166 35.0987 22.8544C35.2924 22.5927 35.4847 22.3281 35.6774 22.063C36.1231 21.4499 36.5708 20.8341 37.0418 20.245C38.3875 18.562 39.8792 17.1573 41.9042 16.7905C42.6186 16.7689 43.3443 16.8503 44.0877 16.9336C44.4551 16.9748 44.8268 17.0165 45.2037 17.0465C46.3202 17.1354 47.4532 17.1156 48.5093 16.6159C48.6823 16.5849 48.8597 16.4992 49.0095 16.3998C49.1697 16.2935 49.3198 16.1573 49.4152 16.0189C49.4623 15.9505 49.505 15.8687 49.5198 15.7802C49.5356 15.6852 49.5188 15.5742 49.4342 15.4857C49.3575 15.4056 49.2512 15.3722 49.1495 15.3598C49.0449 15.347 48.9189 15.3531 48.7722 15.3756L48.7381 15.3808L48.7076 15.3973C47.6376 15.9743 46.2941 16.2369 45.076 16.0101C43.4312 15.4409 42.0296 15.5007 40.8077 15.9513C39.5879 16.4011 38.5629 17.2347 37.6595 18.1838C36.9499 18.9293 36.3057 19.7569 35.6999 20.5354C35.5361 20.7458 35.3751 20.9527 35.2164 21.1533C34.5997 21.933 34.0208 22.614 33.4359 23.0822C33.5903 22.3137 33.8059 21.5302 34.0378 20.7346C34.1027 20.5119 34.1689 20.2881 34.2354 20.0636C34.4553 19.3205 34.6779 18.5685 34.8636 17.8186C35.3473 15.8654 35.5934 13.8814 34.8949 11.9829L34.8823 11.9488L34.8585 11.9212C34.5047 11.5119 34.12 11.2941 33.7118 11.2551C33.3073 11.2166 32.914 11.357 32.5464 11.5945C31.8181 12.0652 31.1218 12.9626 30.5156 13.8781C30.139 14.4468 29.7825 15.0465 29.472 15.5689C29.2847 15.8839 29.1142 16.1708 28.966 16.406C28.7954 16.6765 28.6588 16.8717 28.5564 16.9841C28.555 16.9156 28.5539 16.8431 28.5527 16.7671C28.5435 16.1697 28.531 15.3602 28.3635 14.6671C28.2616 14.2458 28.0976 13.8429 27.8232 13.549C27.5412 13.2469 27.1552 13.0738 26.6492 13.0977L26.6018 13.0999L26.5604 13.1233C25.7185 13.5979 25.1681 14.4098 24.7212 15.2373C24.5622 15.5318 24.413 15.8347 24.2688 16.1278C24.2104 16.2463 24.1529 16.3632 24.0957 16.4774C24.01 16.6487 23.925 16.8144 23.8388 16.9723C23.8388 16.9514 23.8388 16.9304 23.8388 16.9094L23.8389 16.8743C23.8391 16.6034 23.8389 16.3258 23.8279 16.0518C23.8059 15.506 23.7406 14.9561 23.5386 14.4729L23.4973 14.3741L23.3922 14.3537C23.1365 14.304 22.8998 14.318 22.7567 14.4904C22.6895 14.5714 22.6629 14.6664 22.6534 14.7508C22.6439 14.8347 22.6497 14.9219 22.6596 15.0015C22.6687 15.0757 22.6826 15.1529 22.6955 15.224L22.6985 15.2409C22.7126 15.3192 22.725 15.3901 22.7319 15.4557C22.7474 15.6022 22.7264 15.6517 22.7141 15.6655L22.7138 15.6652L22.7059 15.6752C20.7171 18.2083 19.7657 21.1243 18.8153 24.0371C18.6209 24.6327 18.4266 25.2282 18.2235 25.8203C18.1845 25.8137 18.1449 25.7937 18.1012 25.7564C18.0138 25.6818 17.9189 25.5427 17.8254 25.3245C17.6397 24.8908 17.4908 24.2209 17.3823 23.3812C17.1658 21.7077 17.1166 19.4219 17.2132 17.1615C17.3097 14.9004 17.5514 12.679 17.9119 11.1329C18.0933 10.3549 18.2998 9.77077 18.5195 9.43655C18.6299 9.26856 18.7271 9.18955 18.8015 9.16238C18.8605 9.14086 18.9318 9.14182 19.0357 9.21673L19.079 9.24793L19.1321 9.25343C19.6342 9.30552 21.1947 9.40736 22.4702 9.28221C23.0984 9.22058 23.6996 9.10075 24.0613 8.86348C24.2481 8.74093 24.3977 8.569 24.4245 8.33577C24.4507 8.10824 24.3531 7.87631 24.1729 7.64578L24.0369 7.47187L23.8772 7.62428C23.2793 8.19489 22.4603 8.3526 21.5464 8.35819C21.091 8.36098 20.6228 8.32617 20.1566 8.29109L20.1404 8.28987C19.6854 8.25563 19.2308 8.22143 18.8084 8.2262C18.7001 8.22046 18.6369 8.17805 18.5891 8.10336C18.5322 8.01443 18.4922 7.86917 18.4785 7.65753C18.451 7.2356 18.5321 6.65254 18.6405 6.00566C18.6634 5.86953 18.6873 5.73086 18.7115 5.59101C18.8003 5.07747 18.8919 4.54815 18.9388 4.0716C18.9688 3.76729 18.9815 3.47673 18.9626 3.21849C18.9438 2.96255 18.893 2.72247 18.7842 2.52993ZM28.5683 17.1112C28.5682 17.1114 28.5674 17.1102 28.566 17.1071C28.5677 17.1095 28.5684 17.111 28.5683 17.1112Z" fill="#F5F5F5" stroke="black" stroke-width="0.4"/>
<defs>
<linearGradient id="paint0_linear_1120_1379" x1="8.81901" y1="15.9623" x2="39.7989" y2="15.9623" gradientUnits="userSpaceOnUse">
<stop stop-color="#E6C720"/>
<stop offset="0.1" stop-color="#E6C721"/>
<stop offset="0.14" stop-color="#E7C928"/>
<stop offset="0.17" stop-color="#E9CE34"/>
<stop offset="0.19" stop-color="#EBD345"/>
<stop offset="0.21" stop-color="#EEDB5B"/>
<stop offset="0.22" stop-color="#F2E475"/>
<stop offset="0.24" stop-color="#F8F098"/>
<stop offset="0.27" stop-color="#EDE083"/>
<stop offset="0.45" stop-color="#B58812"/>
<stop offset="0.53" stop-color="#C19923"/>
<stop offset="0.69" stop-color="#E0C652"/>
<stop offset="0.81" stop-color="#FBED79"/>
<stop offset="0.83" stop-color="#F1D666"/>
<stop offset="0.88" stop-color="#DEAA43"/>
<stop offset="0.93" stop-color="#D08929"/>
<stop offset="0.97" stop-color="#C87619"/>
<stop offset="1" stop-color="#C56F14"/>
</linearGradient>
<linearGradient id="paint1_linear_1120_1379" x1="9.70232" y1="16.7232" x2="40.5772" y2="16.7232" gradientUnits="userSpaceOnUse">
<stop stop-color="#E6C720"/>
<stop offset="0.1" stop-color="#E6C721"/>
<stop offset="0.14" stop-color="#E7C928"/>
<stop offset="0.17" stop-color="#E9CE34"/>
<stop offset="0.19" stop-color="#EBD345"/>
<stop offset="0.21" stop-color="#EEDB5B"/>
<stop offset="0.22" stop-color="#F2E475"/>
<stop offset="0.24" stop-color="#F8F098"/>
<stop offset="0.27" stop-color="#EDE083"/>
<stop offset="0.45" stop-color="#B58812"/>
<stop offset="0.53" stop-color="#C19923"/>
<stop offset="0.69" stop-color="#E0C652"/>
<stop offset="0.81" stop-color="#FBED79"/>
<stop offset="0.83" stop-color="#F1D666"/>
<stop offset="0.88" stop-color="#DEAA43"/>
<stop offset="0.93" stop-color="#D08929"/>
<stop offset="0.97" stop-color="#C87619"/>
<stop offset="1" stop-color="#C56F14"/>
</linearGradient>
</defs>
</svg>
