<svg width="48" height="48" viewBox="0 0 48 48" fill="none" xmlns="http://www.w3.org/2000/svg">
<path d="M19.3746 25.0742H22.2746V20.4242H25.7746V25.0742H28.6746V17.4242L23.9996 14.3992L19.3746 17.4242V25.0742ZM23.9996 39.9492C27.7663 36.7159 30.7996 33.3326 33.0996 29.7992C35.3996 26.2659 36.5496 23.2076 36.5496 20.6242C36.5496 16.8742 35.3746 13.7701 33.0246 11.3117C30.6746 8.85339 27.6663 7.62422 23.9996 7.62422C20.3329 7.62422 17.3246 8.85339 14.9746 11.3117C12.6246 13.7701 11.4496 16.8742 11.4496 20.6242C11.4496 23.2076 12.6079 26.2659 14.9246 29.7992C17.2413 33.3326 20.2663 36.7159 23.9996 39.9492ZM23.9996 41.4492C19.4829 37.4159 16.0788 33.6451 13.7871 30.1367C11.4954 26.6284 10.3496 23.4576 10.3496 20.6242C10.3496 16.6409 11.6538 13.3034 14.2621 10.6117C16.8704 7.92005 20.1163 6.57422 23.9996 6.57422C27.8829 6.57422 31.1288 7.92005 33.7371 10.6117C36.3454 13.3034 37.6496 16.6409 37.6496 20.6242C37.6496 23.4576 36.5038 26.6284 34.2121 30.1367C31.9204 33.6451 28.5163 37.4159 23.9996 41.4492Z" fill="white"/>
</svg>
